<svg width="12" height="12" viewBox="0 0 12 12" fill="none" xmlns="http://www.w3.org/2000/svg">
<path d="M9.72695 3.75H2.27445C2.23964 3.74986 2.20518 3.75699 2.17328 3.77094C2.14139 3.78488 2.11275 3.80534 2.08922 3.83099C2.06568 3.85665 2.04777 3.88693 2.03661 3.91991C2.02546 3.95289 2.02132 3.98783 2.02445 4.0225L2.66795 11.0905C2.69054 11.339 2.80524 11.5702 2.98954 11.7384C3.17383 11.9067 3.41438 12 3.66395 12H8.33745C8.58702 12 8.82758 11.9067 9.01187 11.7384C9.19616 11.5702 9.31087 11.339 9.33345 11.0905L9.97595 4.0225C9.97905 3.98793 9.97491 3.9531 9.96381 3.92021C9.9527 3.88733 9.93487 3.85712 9.91145 3.8315C9.88805 3.80585 9.85955 3.78535 9.82779 3.77132C9.79602 3.75729 9.76168 3.75003 9.72695 3.75ZM5.12695 10.25C5.12695 10.3495 5.08744 10.4448 5.01712 10.5152C4.94679 10.5855 4.85141 10.625 4.75195 10.625C4.6525 10.625 4.55711 10.5855 4.48679 10.5152C4.41646 10.4448 4.37695 10.3495 4.37695 10.25V5.75C4.37695 5.65055 4.41646 5.55516 4.48679 5.48484C4.55711 5.41451 4.6525 5.375 4.75195 5.375C4.85141 5.375 4.94679 5.41451 5.01712 5.48484C5.08744 5.55516 5.12695 5.65055 5.12695 5.75V10.25ZM7.62695 10.25C7.62695 10.3495 7.58744 10.4448 7.51712 10.5152C7.44679 10.5855 7.35141 10.625 7.25195 10.625C7.1525 10.625 7.05711 10.5855 6.98679 10.5152C6.91646 10.4448 6.87695 10.3495 6.87695 10.25V5.75C6.87695 5.65055 6.91646 5.55516 6.98679 5.48484C7.05711 5.41451 7.1525 5.375 7.25195 5.375C7.35141 5.375 7.44679 5.41451 7.51712 5.48484C7.58744 5.55516 7.62695 5.65055 7.62695 5.75V10.25Z" fill="#FA2D3A"/>
<path d="M11 2H8.625C8.59185 2 8.56005 1.98683 8.53661 1.96339C8.51317 1.93995 8.5 1.90815 8.5 1.875V1.25C8.5 0.918479 8.3683 0.600537 8.13388 0.366117C7.89946 0.131696 7.58152 0 7.25 0L4.75 0C4.41848 0 4.10054 0.131696 3.86612 0.366117C3.6317 0.600537 3.5 0.918479 3.5 1.25V1.875C3.5 1.90815 3.48683 1.93995 3.46339 1.96339C3.43995 1.98683 3.40815 2 3.375 2H1C0.867392 2 0.740215 2.05268 0.646447 2.14645C0.552678 2.24021 0.5 2.36739 0.5 2.5C0.5 2.63261 0.552678 2.75979 0.646447 2.85355C0.740215 2.94732 0.867392 3 1 3H11C11.1326 3 11.2598 2.94732 11.3536 2.85355C11.4473 2.75979 11.5 2.63261 11.5 2.5C11.5 2.36739 11.4473 2.24021 11.3536 2.14645C11.2598 2.05268 11.1326 2 11 2ZM4.5 1.875V1.25C4.5 1.1837 4.52634 1.12011 4.57322 1.07322C4.62011 1.02634 4.6837 1 4.75 1H7.25C7.3163 1 7.37989 1.02634 7.42678 1.07322C7.47366 1.12011 7.5 1.1837 7.5 1.25V1.875C7.5 1.90815 7.48683 1.93995 7.46339 1.96339C7.43995 1.98683 7.40815 2 7.375 2H4.625C4.59185 2 4.56005 1.98683 4.53661 1.96339C4.51317 1.93995 4.5 1.90815 4.5 1.875Z" fill="#FA2D3A"/>
</svg>
