<svg width="32" height="32" viewBox="0 0 32 32" fill="none" xmlns="http://www.w3.org/2000/svg">
<g clip-path="url(#clip0_174_2077)">
<path d="M30.8141 7.93866L29.1288 6.25332L30.3035 5.07999C30.7826 4.60136 31.052 3.952 31.0524 3.27474C31.0528 2.59748 30.7841 1.94782 30.3055 1.46866C29.8268 0.989501 29.1775 0.720102 28.5002 0.719727C27.823 0.719352 27.1733 0.988031 26.6941 1.46666L12.0501 16.1133C10.3466 15.2662 8.39737 15.0523 6.5507 15.51C4.70402 15.9676 3.08023 17.067 1.96946 18.6116C0.858699 20.1563 0.333329 22.0455 0.487226 23.9418C0.641123 25.8381 1.46426 27.6179 2.80956 28.9632C4.15486 30.3085 5.93467 31.1317 7.83098 31.2856C9.72729 31.4395 11.6165 30.9141 13.1612 29.8033C14.7058 28.6926 15.8052 27.0688 16.2628 25.2221C16.7205 23.3754 16.5066 21.4262 15.6595 19.7227L20.6448 14.74L21.6608 15.756C21.8775 15.9727 22.1347 16.1446 22.4178 16.2618C22.7009 16.3791 23.0044 16.4394 23.3108 16.4394C23.6172 16.4394 23.9207 16.3791 24.2038 16.2618C24.4869 16.1446 24.7441 15.9727 24.9608 15.756C25.1775 15.5393 25.3494 15.2821 25.4666 14.999C25.5839 14.7159 25.6443 14.4124 25.6443 14.106C25.6443 13.7996 25.5839 13.4961 25.4666 13.213C25.3494 12.9299 25.1775 12.6727 24.9608 12.456L23.9435 11.44L25.8315 9.55066L27.5168 11.2347C27.9605 11.6595 28.5512 11.8966 29.1655 11.8966C29.7798 11.8966 30.3704 11.6595 30.8141 11.2347C31.2502 10.7971 31.4951 10.2045 31.4951 9.58666C31.4951 8.96887 31.2502 8.37626 30.8141 7.93866V7.93866ZM8.49814 19.272C9.28927 19.272 10.0626 19.5066 10.7204 19.9461C11.3782 20.3856 11.8909 21.0104 12.1937 21.7413C12.4964 22.4722 12.5756 23.2764 12.4213 24.0524C12.2669 24.8283 11.886 25.541 11.3266 26.1004C10.7672 26.6598 10.0544 27.0408 9.2785 27.1951C8.50258 27.3495 7.69831 27.2703 6.96741 26.9675C6.2365 26.6648 5.61179 26.1521 5.17226 25.4943C4.73274 24.8365 4.49814 24.0631 4.49814 23.272C4.49885 22.2116 4.92059 21.1949 5.67066 20.4453C6.42072 19.6957 7.43774 19.2747 8.49814 19.2747V19.272Z" fill="#153C62"/>
</g>
<defs>
<clipPath id="clip0_174_2077">
<rect width="32" height="32" fill="white"/>
</clipPath>
</defs>
</svg>
